<?xml version="1.0" encoding="UTF-8"?>
<svg width="328px" height="12px" viewBox="0 0 328 12" version="1.1" xmlns="http://www.w3.org/2000/svg" xmlns:xlink="http://www.w3.org/1999/xlink">
    <!-- Generator: Sketch 55.2 (78181) - https://sketchapp.com -->
    <title>status bar</title>
    <desc>Created with Sketch.</desc>
    <g id="BusyBus---bus-stop-display" stroke="none" stroke-width="1" fill="none" fill-rule="evenodd">
        <g id="Bus-Stop-Display" transform="translate(-33.000000, -17.000000)">
            <g id="status-bar" transform="translate(21.000000, 7.000000)">
                <g id="Battery" transform="translate(315.000000, 10.000000)">
                    <path d="M3.7518137,0.833333333 C2.74354052,0.833333333 2.34483914,0.910326123 1.9333052,1.13041688 C1.58587152,1.31622645 1.31619311,1.58590485 1.13038355,1.93333853 C0.910292789,2.34487247 0.8333,2.74357386 0.8333,3.75184704 L0.8333,8.24815296 C0.8333,9.25642614 0.910292789,9.65512753 1.13038355,10.0666615 C1.31619311,10.4140951 1.58587152,10.6837736 1.9333052,10.8695831 C2.34483914,11.0896739 2.74354052,11.1666667 3.7518137,11.1666667 L18.9147863,11.1666667 C19.9230595,11.1666667 20.3217609,11.0896739 20.7332948,10.8695831 C21.0807285,10.6837736 21.3504069,10.4140951 21.5362165,10.0666615 C21.7563072,9.65512753 21.8333,9.25642614 21.8333,8.24815296 L21.8333,3.75184704 C21.8333,2.74357386 21.7563072,2.34487247 21.5362165,1.93333853 C21.3504069,1.58590485 21.0807285,1.31622645 20.7332948,1.13041688 C20.3217609,0.910326123 19.9230595,0.833333333 18.9147863,0.833333333 L3.7518137,0.833333333 Z" id="Border" stroke="#000000" opacity="0.35"></path>
                    <path d="M23.3333,4 L23.3333,8 C24.1380311,7.66122348 24.661338,6.87313328 24.661338,6 C24.661338,5.12686672 24.1380311,4.33877652 23.3333,4" id="Cap" fill="#000000" fill-rule="nonzero" opacity="0.4"></path>
                    <path d="M4.04255685,2.33333333 L18.6240431,2.33333333 C19.218389,2.33333333 19.4339132,2.39521708 19.6511971,2.51142181 C19.8684811,2.62762654 20.0390068,2.79815226 20.1552115,3.01543622 C20.2714163,3.23272018 20.3333,3.44824434 20.3333,4.04259018 L20.3333,7.95740982 C20.3333,8.55175566 20.2714163,8.76727982 20.1552115,8.98456378 C20.0390068,9.20184774 19.8684811,9.37237346 19.6511971,9.48857819 C19.4339132,9.60478292 19.218389,9.66666667 18.6240431,9.66666667 L4.04255685,9.66666667 C3.44821101,9.66666667 3.23268684,9.60478292 3.01540288,9.48857819 C2.79811893,9.37237346 2.62759321,9.20184774 2.51138847,8.98456378 C2.39518374,8.76727982 2.3333,8.55175566 2.3333,7.95740982 L2.3333,4.04259018 C2.3333,3.44824434 2.39518374,3.23272018 2.51138847,3.01543622 C2.62759321,2.79815226 2.79811893,2.62762654 3.01540288,2.51142181 C3.23268684,2.39521708 3.44821101,2.33333333 4.04255685,2.33333333 Z" id="Capacity" fill="#000000" fill-rule="nonzero"></path>
                </g>
                <path d="M302.667069,12.6151501 C304.891802,12.6152475 307.031463,13.4693583 308.643817,15.0009506 C308.765231,15.1191953 308.959299,15.1177037 309.078879,14.9976068 L310.23949,13.8272772 C310.300039,13.7663644 310.333797,13.6838545 310.3333,13.5980054 C310.332792,13.5121564 310.29807,13.4300466 310.236813,13.3698455 C306.0049,9.31761511 299.328569,9.31761511 295.096657,13.3698455 C295.035354,13.4300019 295.000572,13.5120868 295,13.5979359 C294.999442,13.6837851 295.03314,13.7663201 295.093645,13.8272772 L296.254591,14.9976068 C296.374094,15.117885 296.568312,15.1193777 296.689653,15.0009506 C298.302212,13.4692577 300.442119,12.6151445 302.667069,12.6151501 L302.667069,12.6151501 Z M302.667069,16.4227339 C303.889415,16.4226591 305.068141,16.8766124 305.97421,17.6963869 C306.09676,17.8127317 306.289808,17.8102093 306.409272,17.6907025 L307.568544,16.5203729 C307.629594,16.4589857 307.663468,16.3757088 307.662605,16.2891732 C307.661707,16.2026376 307.626146,16.120066 307.563859,16.0599317 C304.804697,13.4955232 300.531784,13.4955232 297.772622,16.0599317 C297.710297,16.1200652 297.674737,16.2026782 297.673905,16.2892418 C297.673102,16.3758053 297.707094,16.4590744 297.768272,16.5203729 L298.92721,17.6907025 C299.046673,17.8102093 299.239722,17.8127317 299.362272,17.6963869 C300.267742,16.877154 301.445531,16.4232396 302.667069,16.4227339 L302.667069,16.4227339 Z M304.894921,19.2158092 C304.956921,19.1550129 304.991064,19.0713489 304.989291,18.9845705 C304.987517,18.897792 304.949983,18.8155907 304.885551,18.7573743 C303.604891,17.6751031 301.729248,17.6751031 300.448588,18.7573743 C300.384111,18.8155439 300.346516,18.8977193 300.344679,18.9844982 C300.342841,19.0712771 300.376925,19.1549675 300.438883,19.2158092 L302.444518,21.2378044 C302.503302,21.2972294 302.583446,21.3306727 302.667069,21.3306727 C302.750693,21.3306727 302.830837,21.2972294 302.88962,21.2378044 L304.894921,19.2158092 Z" id="Wifi" fill="#000000" fill-rule="nonzero"></path>
                <path d="M274,17.3333337 L275,17.3333337 C275.552285,17.3333337 276,17.7810489 276,18.3333337 L276,20.3333337 C276,20.8856184 275.552285,21.3333337 275,21.3333337 L274,21.3333337 C273.447715,21.3333337 273,20.8856184 273,20.3333337 L273,18.3333337 C273,17.7810489 273.447715,17.3333337 274,17.3333337 L274,17.3333337 Z M278.666667,15.3333337 L279.666667,15.3333337 C280.218951,15.3333337 280.666667,15.7810489 280.666667,16.3333337 L280.666667,20.3333337 C280.666667,20.8856184 280.218951,21.3333337 279.666667,21.3333337 L278.666667,21.3333337 C278.114382,21.3333337 277.666667,20.8856184 277.666667,20.3333337 L277.666667,16.3333337 C277.666667,15.7810489 278.114382,15.3333337 278.666667,15.3333337 Z M283.333333,13.0000003 L284.333333,13.0000003 C284.885618,13.0000003 285.333333,13.4477156 285.333333,14.0000003 L285.333333,20.3333337 C285.333333,20.8856184 284.885618,21.3333337 284.333333,21.3333337 L283.333333,21.3333337 C282.781049,21.3333337 282.333333,20.8856184 282.333333,20.3333337 L282.333333,14.0000003 C282.333333,13.4477156 282.781049,13.0000003 283.333333,13.0000003 Z M288,10.666667 L289,10.666667 C289.552285,10.666667 290,11.1143823 290,11.666667 L290,20.3333337 C290,20.8856184 289.552285,21.3333337 289,21.3333337 L288,21.3333337 C287.447715,21.3333337 287,20.8856184 287,20.3333337 L287,11.666667 C287,11.1143823 287.447715,10.666667 288,10.666667 L288,10.666667 Z" id="Cellular-Connection" fill="#000000" fill-rule="nonzero"></path>
                <g id="Time-Style" transform="translate(0.000000, 7.000000)" fill="#000000" font-family="SFProText-Semibold, SF Pro Text" font-size="15" font-weight="500" letter-spacing="-0.3">
                    <text id="Time">
                        <tspan x="11.4867188" y="14">9:41</tspan>
                    </text>
                </g>
            </g>
        </g>
    </g>
</svg>