<?xml version="1.0" encoding="UTF-8"?>
<svg width="41px" height="40px" viewBox="0 0 41 40" version="1.1" xmlns="http://www.w3.org/2000/svg" xmlns:xlink="http://www.w3.org/1999/xlink">
    <!-- Generator: Sketch 55.2 (78181) - https://sketchapp.com -->
    <title>bus icon</title>
    <desc>Created with Sketch.</desc>
    <g id="BusyBus---bus-stop-display" stroke="none" stroke-width="1" fill="none" fill-rule="evenodd">
        <g id="Bus-Stop-Display" transform="translate(-10.000000, -85.000000)" fill="#4A4A4A">
            <g id="bus-icon" transform="translate(10.000000, 85.000000)">
                <path d="M27.6511628,32.3809524 L20.9767442,40 L14.3023256,32.3809524 L4,32.3809524 C1.790861,32.3809524 2.23265109e-15,30.5900914 0,28.3809524 L0,4 C-2.705415e-16,1.790861 1.790861,4.05812251e-16 4,0 L37,0 C39.209139,-4.05812251e-16 41,1.790861 41,4 L41,28.3809524 C41,30.5900914 39.209139,32.3809524 37,32.3809524 L27.6511628,32.3809524 Z M28.6354481,19.7346919 C29.9629358,19.6897296 31.0809775,20.7556968 31.0806452,22.0655106 C31.0803126,23.3096861 30.0576851,24.3559618 28.8006776,24.3986267 C27.4748523,24.4432608 26.3578078,23.3766372 26.3571429,22.0655106 C26.3568105,20.8193661 27.3754486,19.7773568 28.6354481,19.7346919 Z M14.0838122,24.3999784 C12.7568608,24.4039084 11.6751611,23.3041573 11.7153717,21.9922715 C11.7532561,20.7467188 12.8040501,19.7372728 14.0665316,19.7333198 C15.3931507,19.7290632 16.4781736,20.8301278 16.4366336,22.1390582 C16.3974199,23.382969 15.3429704,24.3963556 14.0838122,24.3999784 Z M32.4976959,15.0666613 L25.8847926,15.0666613 L25.8847926,9.47499001 C26.9882663,9.47499001 28.0853279,9.44733613 29.1790309,9.49286727 C29.481616,9.50543722 29.9386995,9.66521521 30.0437341,9.875273 C30.875156,11.5359027 31.6381833,13.2250243 32.4976959,15.0666613 Z M16.437788,9.48114188 L16.437788,15.0666613 L10.7819181,15.0666613 C10.7819181,13.476404 10.7333792,11.8665278 10.8288911,10.2636583 C10.8451751,9.98787172 11.4602091,9.53747634 11.8237806,9.51673629 C13.313453,9.43125365 14.8128332,9.48114188 16.437788,9.48114188 Z M17.3824885,15.0666613 L17.3824885,9.46667099 L23.0506912,9.46667099 L23.0506912,15.0666613 L17.3824885,15.0666613 Z M10.8795931,22.5384436 C11.3805659,24.128537 12.3377871,25.3394498 14.2150092,25.3333101 C16.0937322,25.3271235 17.0272405,24.085395 17.5447222,22.4823883 L25.1931868,22.4823883 C25.2829357,22.612108 25.362479,22.6851853 25.3903942,22.7738173 C25.8637519,24.2726374 26.8401836,25.273416 28.4802766,25.327417 C30.1056616,25.3811245 31.1841489,24.5262071 31.7418525,23.0124194 C31.8325019,22.7664803 32.1887959,22.4908993 32.4565417,22.451279 C33.9108335,22.2358621 34.1518648,21.3105088 34.3019465,20.0526386 C34.7659992,16.1595804 33.2552766,12.7915641 31.6632097,9.40417795 C30.7882333,7.5429058 29.3723624,6.66392281 27.3099394,6.66667586 C22.0141558,6.67448822 16.7186724,6.65746618 11.4231891,6.6747817 C9.05970215,6.68241227 7.95810233,7.78238831 7.94489514,10.1164623 C7.92718549,13.1936365 7.93979236,16.2711041 7.94039268,19.3485718 C7.94069285,22.0007819 8.16041248,22.2429057 10.8795931,22.5384436 Z" id="Combined-Shape"></path>
            </g>
        </g>
    </g>
</svg>